<?xml version="1.0" encoding="UTF-8"?>
<svg version="1.1" xmlns="http://www.w3.org/2000/svg" width="32" height="32">
<path d="M0 0 C20.4135118 9.50661912 20.4135118 9.50661912 30 15 C29 18 29 18 26.31616211 19.62573242 C25.14835205 20.19654541 23.98054199 20.7673584 22.77734375 21.35546875 C22.15726944 21.66196854 21.53719513 21.96846832 20.89833069 22.28425598 C18.91588059 23.26148189 16.92693099 24.22457797 14.9375 25.1875 C13.5926477 25.84738843 12.2482405 26.5081848 10.90429688 27.16992188 C7.60796516 28.79051688 4.30566282 30.39850857 1 32 C-0.114235 28.24884096 0.30062436 26.73718266 2 23.1875 C3.92762266 18.63857732 4.3797526 15.87512586 3 11 C2.49698959 9.76343274 1.9758337 8.5341034 1.4375 7.3125 C0 4 0 4 0 0 Z " fill="#F48B25" transform="translate(1,0)"/>
</svg>
