<?xml version="1.0" encoding="UTF-8"?>
<svg version="1.1" xmlns="http://www.w3.org/2000/svg" width="24" height="24">
<path d="M0 0 C3.75212276 2.01502889 5.63644095 3.45466142 8 7 C8.73481953 11.96430406 8.46167395 15.98786865 6.375 20.5625 C3.57093489 23.4403563 1.95349203 23.82029582 -2 24 C-2 21.69 -2 19.38 -2 17 C-0.68 16.67 0.64 16.34 2 16 C2 12.7 2 9.4 2 6 C1.01 6.495 1.01 6.495 0 7 C-1.875 7.1328125 -1.875 7.1328125 -4 7.125 C-5.051875 7.12886719 -5.051875 7.12886719 -6.125 7.1328125 C-8 7 -8 7 -10 6 C-10 9.3 -10 12.6 -10 16 C-8.68 16.33 -7.36 16.66 -6 17 C-6 19.31 -6 21.62 -6 24 C-9.95349203 23.82029582 -11.57093489 23.4403563 -14.375 20.5625 C-16.50024917 15.90329989 -16.84197535 12.04343238 -16 7 C-12.26369403 0.59490405 -7.26751941 -1.16000791 0 0 Z " fill="#4079C3" transform="translate(16,0)"/>
<path d="M0 0 C4 1 4 1 6 2 C6.37815626 6.7269532 6.40323141 10.13150158 4.375 14.5 C1.57411193 17.44830323 -0.00278343 17.81830834 -4 18 C-4 15.69 -4 13.38 -4 11 C-2.68 10.67 -1.36 10.34 0 10 C0 6.7 0 3.4 0 0 Z " fill="#134B88" transform="translate(18,6)"/>
</svg>
