<?xml version="1.0" encoding="UTF-8"?>
<svg version="1.1" xmlns="http://www.w3.org/2000/svg" width="24" height="24">
<path d="M0 0 C3.12578143 1.6720747 5.39281175 3.7856235 7 7 C7.51512617 11.09157355 7.94367269 15.23589546 5.953125 18.95703125 C3.55501226 21.85592636 1.60351712 23.79811835 -2.171875 24.2734375 C-9.98876369 24.58137554 -9.98876369 24.58137554 -13.5625 21.625 C-17.3057723 17.59378368 -17.39037018 14.90519941 -17.359375 9.55078125 C-16.78039966 5.44131496 -15.00085071 3.78650423 -12 1 C-8.27533151 -0.86233425 -4.05504687 -0.57130829 0 0 Z " fill="#2EA91F" transform="translate(17,0)"/>
<path d="M0 0 C2 1 2 1 3 3 C3.45304626 5.75268612 3.69517569 8.28498314 3 11 C0.82587845 13.22410135 -0.4753512 13.94038082 -3.578125 14.29296875 C-4.45984375 14.25816406 -5.3415625 14.22335938 -6.25 14.1875 C-7.14203125 14.16042969 -8.0340625 14.13335937 -8.953125 14.10546875 C-9.62859375 14.07066406 -10.3040625 14.03585938 -11 14 C-11.08114106 12.22992286 -11.13925505 10.45877902 -11.1875 8.6875 C-11.22230469 7.70136719 -11.25710937 6.71523437 -11.29296875 5.69921875 C-11 3 -11 3 -9.73828125 1.16796875 C-6.67249051 -0.89196705 -3.54723662 -0.51730534 0 0 Z " fill="#73C569" transform="translate(16,5)"/>
<path d="M0 0 C2 1 2 1 3 3 C3.45304626 5.75268612 3.69517569 8.28498314 3 11 C0.82587845 13.22410135 -0.4753512 13.94038082 -3.578125 14.29296875 C-4.45984375 14.25816406 -5.3415625 14.22335938 -6.25 14.1875 C-7.14203125 14.16042969 -8.0340625 14.13335937 -8.953125 14.10546875 C-9.62859375 14.07066406 -10.3040625 14.03585938 -11 14 C-11.08114106 12.22992286 -11.13925505 10.45877902 -11.1875 8.6875 C-11.22230469 7.70136719 -11.25710937 6.71523437 -11.29296875 5.69921875 C-11 3 -11 3 -9.73828125 1.16796875 C-6.67249051 -0.89196705 -3.54723662 -0.51730534 0 0 Z M-8.3125 2.5625 C-10.38941336 5.02199927 -10.38941336 5.02199927 -9.75 8.75 C-9.5025 9.8225 -9.255 10.895 -9 12 C-5.69432511 12.85387105 -5.69432511 12.85387105 -2 13 C0.6469872 11.60314994 0.6469872 11.60314994 2 9 C2.08892339 5.86637282 2.08892339 5.86637282 1 3 C-2.6247448 0.58350347 -4.59373683 0.04982219 -8.3125 2.5625 Z " fill="#E7F5E5" transform="translate(16,5)"/>
<path d="M0 0 C2.9375 0.25 2.9375 0.25 6 1 C8 4 8 4 7.625 6.6875 C7.41875 7.450625 7.2125 8.21375 7 9 C6.67 8.34 6.34 7.68 6 7 C4.35 7 2.7 7 1 7 C0.34 5.02 -0.32 3.04 -1 1 C-0.67 0.67 -0.34 0.34 0 0 Z " fill="#3BAE2D" transform="translate(10,6)"/>
</svg>
